<?xml version="1.0" encoding="UTF-8"?>
<svg id="Layer_1" data-name="Layer 1" xmlns="http://www.w3.org/2000/svg" version="1.1" viewBox="0 0 200 200">
  <defs>
    <style>
      .cls-1 {
        fill: #ffcc1d;
        fill-rule: evenodd;
        stroke-width: 0px;
      }
    </style>
  </defs>
  <path class="cls-1" d="M100.8,94.1c-3.8-.1-6.4,0-9.7.8-1.3.3-2,1.4-2.2,1.6-.5,1-.6,2-.6,3,0,.3.2.5.5.5h11.9c.3,0,.5-.2.5-.5v-4.9c0-.3-.2-.5-.5-.5Z"/>
  <path class="cls-1" d="M100.9,102.2h-11.9c-.2,0-.5.2-.4.4l.3,2.1c0,.2.2.4.4.4h11.6c.2,0,.4-.2.4-.4v-2.1c0-.2-.2-.4-.4-.4Z"/>
  <path class="cls-1" d="M100.9,107.4h-11.1c-.2,0-.5.2-.4.4l.4,1.6c.2.8,1.1,2.1,2.7,2.1h1.2s0,0,0,0c0,0,0,0,0,0,.1.2.2.4.3.5.1.2.2.4.4.5,1.1,1.2,2.3,1.3,3.1,1.3.2,0,.5,0,.7,0,.2,0,.4-.2,0-.5-.4-.4-.6-.9-.8-1.4,0-.2.1-.4.4-.4h3.1c.2,0,.4-.2.4-.4v-3.3c0-.2-.2-.4-.4-.4Z"/>
  <path class="cls-1" d="M106.2,102.2h-2.1c-.2,0-.4.2-.4.4v2.2c0,.2.2.4.4.4h2.1c.2,0,.4-.2.4-.4v-2.2c0-.2-.2-.4-.4-.4Z"/>
  <path class="cls-1" d="M106.2,107.4h-2.1c-.2,0-.4.2-.4.4v3.3c0,.2.2.4.4.4l2.1-.2c.2,0,.4-.2.4-.4v-3.1c0-.2-.2-.4-.4-.4Z"/>
  <path class="cls-1" d="M106.2,94.5l-2.1-.2c-.2,0-.4.2-.4.4v5c0,.2.2.4.4.4h2.1c.2,0,.4-.2.4-.4v-4.8c0-.2-.2-.4-.4-.4Z"/>
  <path class="cls-1" d="M110.7,95.5c-.4-.3-.9-.5-1.5-.5-.2,0-.4.1-.4.3v4.3c0,.2.2.4.4.4h2.1c.2,0,.4-.1.4-.3v-1.6c0-.4,0-1.9-.9-2.5Z"/>
  <path class="cls-1" d="M111.1,102.2h-1.8c-.2,0-.4.2-.4.4v2.2c0,.2.2.4.4.4h1.6c.2,0,.4-.2.4-.4l.2-2.2c0-.2-.2-.4-.4-.4Z"/>
  <path class="cls-1" d="M110.3,107.4h-1c-.2,0-.4.2-.4.4v2.1c0,.2.2.4.4.4.4,0,.5-.3.8-.7.4-.7.5-1.2.6-1.8,0-.2-.2-.4-.4-.4Z"/>
</svg>